HIERARCHY
ROOT Hips
{
	OFFSET 0.000000 83.214638 0.000000
	CHANNELS 6 Xposition Yposition Zposition Xrotation Yrotation Zrotation
	JOINT Pelvis
	{
		OFFSET 0.000000 0.000000 0.000000
		CHANNELS 3 Xrotation Yrotation Zrotation
		JOINT LeftUpLeg
		{
			OFFSET 8.479700 -4.795502 -0.379100
			CHANNELS 3 Xrotation Yrotation Zrotation
			JOINT LeftLeg
			{
				OFFSET 0.024144 -32.555107 0.112900
				CHANNELS 3 Xrotation Yrotation Zrotation
				JOINT LeftFoot
				{
					OFFSET -0.024144 -32.638630 -3.012600
					CHANNELS 3 Xrotation Yrotation Zrotation
					JOINT LeftToeBase
					{
						OFFSET 0.970200 -13.225400 11.864200
						CHANNELS 3 Xrotation Yrotation Zrotation
						End Site
						{
							OFFSET 0.000000 12.319262 0.000000
						}
					}
					JOINT LFootTongue
					{
						OFFSET 1.142400 -1.059800 6.665200
						CHANNELS 3 Xrotation Yrotation Zrotation
						End Site
						{
							OFFSET 0.000000 12.319262 0.000000
						}
					}
				}
				JOINT LeftPantLeg
				{
					OFFSET 0.918482 -16.533964 -2.284700
					CHANNELS 3 Xrotation Yrotation Zrotation
					End Site
					{
						OFFSET 0.350399 24.744368 0.000000
					}
				}
			}
		}
		JOINT RightUpLeg
		{
			OFFSET -8.479700 -4.795502 -0.379100
			CHANNELS 3 Xrotation Yrotation Zrotation
			JOINT RightLeg
			{
				OFFSET -0.023144 -32.555092 0.112900
				CHANNELS 3 Xrotation Yrotation Zrotation
				JOINT RightFoot
				{
					OFFSET 0.023144 -32.638641 -3.012700
					CHANNELS 3 Xrotation Yrotation Zrotation
					JOINT RightToeBase
					{
						OFFSET -0.970200 -13.225400 11.864200
						CHANNELS 3 Xrotation Yrotation Zrotation
						End Site
						{
							OFFSET 0.000000 12.319244 0.000000
						}
					}
					JOINT RFootTongue
					{
						OFFSET -1.142200 -1.059800 6.665200
						CHANNELS 3 Xrotation Yrotation Zrotation
						End Site
						{
							OFFSET 0.000000 12.319243 0.000000
						}
					}
				}
				JOINT RightPantLeg
				{
					OFFSET -0.919482 -16.533978 -2.284800
					CHANNELS 3 Xrotation Yrotation Zrotation
					End Site
					{
						OFFSET -0.350400 24.744419 0.000000
					}
				}
			}
		}
	}
	JOINT Spine
	{
		OFFSET 0.000000 7.722000 1.166200
		CHANNELS 3 Xrotation Yrotation Zrotation
		JOINT Spine1
		{
			OFFSET 0.000000 12.024101 0.248800
			CHANNELS 3 Xrotation Yrotation Zrotation
			JOINT Spine2
			{
				OFFSET 0.000000 11.502998 -0.491200
				CHANNELS 3 Xrotation Yrotation Zrotation
				JOINT Neck
				{
					OFFSET 0.000000 18.430702 -3.123100
					CHANNELS 3 Xrotation Yrotation Zrotation
					JOINT Head
					{
						OFFSET 0.000000 9.051102 1.034000
						CHANNELS 3 Xrotation Yrotation Zrotation
						JOINT HairB
						{
							OFFSET 0.208400 24.786102 24.822300
							CHANNELS 3 Xrotation Yrotation Zrotation
							End Site
							{
								OFFSET 0.000000 32.263779 0.000000
							}
						}
						JOINT HairA
						{
							OFFSET -7.081100 24.428299 23.196600
							CHANNELS 3 Xrotation Yrotation Zrotation
							End Site
							{
								OFFSET 0.000000 32.263779 0.000000
							}
						}
						JOINT Hat
						{
							OFFSET 16.728800 15.048294 -15.439601
							CHANNELS 3 Xrotation Yrotation Zrotation
							End Site
							{
								OFFSET 0.000000 32.263779 0.000000
							}
						}
					}
				}
				JOINT LeftShoulder
				{
					OFFSET 6.197800 13.665199 -4.064700
					CHANNELS 3 Xrotation Yrotation Zrotation
					JOINT LeftArm
					{
						OFFSET 7.778100 -0.187103 -1.709300
						CHANNELS 3 Xrotation Yrotation Zrotation
						JOINT LeftForeArm
						{
							OFFSET 22.049376 0.000000 0.000000
							CHANNELS 3 Xrotation Yrotation Zrotation
							JOINT LeftHand
							{
								OFFSET 23.009392 0.000000 0.000000
								CHANNELS 3 Xrotation Yrotation Zrotation
								JOINT LeftHandThumb1
								{
									OFFSET 3.507191 -2.063065 3.133727
									CHANNELS 3 Xrotation Yrotation Zrotation
									JOINT LeftHandThumb2
									{
										OFFSET 3.101337 -1.790558 1.790558
										CHANNELS 3 Xrotation Yrotation Zrotation
										JOINT LeftHandThumb3
										{
											OFFSET 3.058640 -1.765907 1.765906
											CHANNELS 3 Xrotation Yrotation Zrotation
											End Site
											{
												OFFSET -0.415260 3.926476 -0.049563
											}
										}
									}
								}
								JOINT LeftHandIndex1
								{
									OFFSET 11.334419 -0.901459 3.706815
									CHANNELS 3 Xrotation Yrotation Zrotation
									JOINT LeftHandIndex2
									{
										OFFSET 3.283112 0.000000 0.000000
										CHANNELS 3 Xrotation Yrotation Zrotation
										JOINT LeftHandIndex3
										{
											OFFSET 3.323853 0.000000 0.000000
											CHANNELS 3 Xrotation Yrotation Zrotation
											End Site
											{
												OFFSET -1.135597 3.097809 0.402452
											}
										}
									}
								}
								JOINT LeftHandMiddle1
								{
									OFFSET 11.335861 0.000000 0.000000
									CHANNELS 3 Xrotation Yrotation Zrotation
									JOINT LeftHandMiddle2
									{
										OFFSET 3.410492 0.000000 0.000000
										CHANNELS 3 Xrotation Yrotation Zrotation
										JOINT LeftHandMiddle3
										{
											OFFSET 3.312172 0.000000 0.000000
											CHANNELS 3 Xrotation Yrotation Zrotation
											End Site
											{
												OFFSET -1.150200 3.080154 0.400270
											}
										}
									}
								}
								JOINT LeftHandRing1
								{
									OFFSET 11.514786 -0.013176 -3.003090
									CHANNELS 3 Xrotation Yrotation Zrotation
									JOINT LeftHandRing2
									{
										OFFSET 3.053307 0.000000 0.000000
										CHANNELS 3 Xrotation Yrotation Zrotation
										JOINT LeftHandRing3
										{
											OFFSET 3.295807 0.000000 0.000000
											CHANNELS 3 Xrotation Yrotation Zrotation
											End Site
											{
												OFFSET -1.281006 3.013344 0.375733
											}
										}
									}
								}
								JOINT LeftHandPinky1
								{
									OFFSET 10.518692 -0.960396 -5.730441
									CHANNELS 3 Xrotation Yrotation Zrotation
									JOINT LeftHandPinky2
									{
										OFFSET 2.861649 0.000000 0.000000
										CHANNELS 3 Xrotation Yrotation Zrotation
										JOINT LeftHandPinky3
										{
											OFFSET 2.863380 0.000000 0.000000
											CHANNELS 3 Xrotation Yrotation Zrotation
											End Site
											{
												OFFSET -0.843597 2.711159 0.369971
											}
										}
									}
								}
							}
							JOINT LSleeve
							{
								OFFSET 6.676277 -0.344902 -1.011730
								CHANNELS 3 Xrotation Yrotation Zrotation
								End Site
								{
									OFFSET 0.000000 14.885353 0.000000
								}
							}
						}
					}
				}
				JOINT RightShoulder
				{
					OFFSET -6.197800 13.665199 -4.064700
					CHANNELS 3 Xrotation Yrotation Zrotation
					JOINT RightArm
					{
						OFFSET -7.778100 -0.187103 -1.709300
						CHANNELS 3 Xrotation Yrotation Zrotation
						JOINT RightForeArm
						{
							OFFSET -22.049376 0.000000 0.000000
							CHANNELS 3 Xrotation Yrotation Zrotation
							JOINT RightHand
							{
								OFFSET -23.009392 0.000000 0.000000
								CHANNELS 3 Xrotation Yrotation Zrotation
								JOINT RightHandThumb1
								{
									OFFSET -3.507191 -2.063065 3.133727
									CHANNELS 3 Xrotation Yrotation Zrotation
									JOINT RightHandThumb2
									{
										OFFSET -3.101337 -1.790558 1.790558
										CHANNELS 3 Xrotation Yrotation Zrotation
										JOINT RightHandThumb3
										{
											OFFSET -3.058640 -1.765907 1.765906
											CHANNELS 3 Xrotation Yrotation Zrotation
											End Site
											{
												OFFSET 0.415260 3.926476 -0.049563
											}
										}
									}
								}
								JOINT RightHandIndex1
								{
									OFFSET -11.334419 -0.901459 3.706815
									CHANNELS 3 Xrotation Yrotation Zrotation
									JOINT RightHandIndex2
									{
										OFFSET -3.283112 0.000000 0.000000
										CHANNELS 3 Xrotation Yrotation Zrotation
										JOINT RightHandIndex3
										{
											OFFSET -3.323853 0.000000 0.000000
											CHANNELS 3 Xrotation Yrotation Zrotation
											End Site
											{
												OFFSET 1.135597 3.097809 0.402452
											}
										}
									}
								}
								JOINT RightHandMiddle1
								{
									OFFSET -11.335861 0.000000 0.000000
									CHANNELS 3 Xrotation Yrotation Zrotation
									JOINT RightHandMiddle2
									{
										OFFSET -3.410492 0.000000 0.000000
										CHANNELS 3 Xrotation Yrotation Zrotation
										JOINT RightHandMiddle3
										{
											OFFSET -3.312172 0.000000 0.000000
											CHANNELS 3 Xrotation Yrotation Zrotation
											End Site
											{
												OFFSET 1.150200 3.080154 0.400270
											}
										}
									}
								}
								JOINT RightHandRing1
								{
									OFFSET -11.514786 -0.013176 -3.003090
									CHANNELS 3 Xrotation Yrotation Zrotation
									JOINT RightHandRing2
									{
										OFFSET -3.053307 0.000000 0.000000
										CHANNELS 3 Xrotation Yrotation Zrotation
										JOINT RightHandRing3
										{
											OFFSET -3.295807 0.000000 0.000000
											CHANNELS 3 Xrotation Yrotation Zrotation
											End Site
											{
												OFFSET 1.281006 3.013344 0.375733
											}
										}
									}
								}
								JOINT RightHandPinky1
								{
									OFFSET -10.518692 -0.960396 -5.730441
									CHANNELS 3 Xrotation Yrotation Zrotation
									JOINT RightHandPinky2
									{
										OFFSET -2.861649 0.000000 0.000000
										CHANNELS 3 Xrotation Yrotation Zrotation
										JOINT RightHandPinky3
										{
											OFFSET -2.863380 0.000000 0.000000
											CHANNELS 3 Xrotation Yrotation Zrotation
											End Site
											{
												OFFSET 0.843597 2.711159 0.369971
											}
										}
									}
								}
							}
							JOINT RSleeve
							{
								OFFSET -6.676277 -0.344902 -1.011730
								CHANNELS 3 Xrotation Yrotation Zrotation
								End Site
								{
									OFFSET 0.000000 14.885353 0.000000
								}
							}
						}
					}
				}
				JOINT Backpack
				{
					OFFSET 0.000000 -2.471497 36.677502
					CHANNELS 3 Xrotation Yrotation Zrotation
					End Site
					{
						OFFSET 0.000000 20.427315 0.000000
					}
				}
				JOINT Hood
				{
					OFFSET 0.000000 18.754097 -10.431000
					CHANNELS 3 Xrotation Yrotation Zrotation
					JOINT Hood1
					{
						OFFSET 0.000000 -5.011002 -7.685901
						CHANNELS 3 Xrotation Yrotation Zrotation
						End Site
						{
							OFFSET 0.000000 9.175140 0.000000
						}
					}
				}
				JOINT LHoodieString
				{
					OFFSET 5.250500 16.397697 3.089900
					CHANNELS 3 Xrotation Yrotation Zrotation
					JOINT LHoodieString1
					{
						OFFSET 0.257700 -6.364304 3.694600
						CHANNELS 3 Xrotation Yrotation Zrotation
						JOINT LHoodieString2
						{
							OFFSET 0.000000 -9.643799 2.679100
							CHANNELS 3 Xrotation Yrotation Zrotation
							End Site
							{
								OFFSET 0.000000 10.009018 0.000000
							}
						}
					}
				}
				JOINT RHoodieString
				{
					OFFSET -5.250500 16.397697 3.089900
					CHANNELS 3 Xrotation Yrotation Zrotation
					JOINT RHoodieString1
					{
						OFFSET -0.257700 -6.364304 3.694600
						CHANNELS 3 Xrotation Yrotation Zrotation
						JOINT RHoodieString2
						{
							OFFSET 0.000000 -9.643799 2.679100
							CHANNELS 3 Xrotation Yrotation Zrotation
							End Site
							{
								OFFSET 0.000000 10.009018 0.000000
							}
						}
					}
				}
			}
			JOINT LBackpack_Strap
			{
				OFFSET 15.223200 -7.719803 -6.610900
				CHANNELS 3 Xrotation Yrotation Zrotation
				End Site
				{
					OFFSET 0.000000 16.040596 0.000000
				}
			}
			JOINT RBackpack_Strap
			{
				OFFSET -15.223000 -7.719803 -6.610900
				CHANNELS 3 Xrotation Yrotation Zrotation
				End Site
				{
					OFFSET 0.000000 16.040596 0.000000
				}
			}
		}
	}
	JOINT BoyFacialAnim_Joint
	{
		OFFSET 1.000000 -82.208099 -1.550900
		CHANNELS 3 Xrotation Yrotation Zrotation
		End Site
		{
			OFFSET 0.000000 30.012791 0.000000
		}
	}
}
MOTION
Frames: 4
Frame Time: 0.033333
-0.221219 83.427216 -0.743923 -3.422176 3.913415 -3.550628 -0.000000 0.000001 0.000000 -26.906263 -10.161331 -0.578516 51.774702 -1.191621 -0.092969 16.740531 2.990023 10.552471 0.000000 -0.000001 0.000001 0.000000 -0.000001 0.000001 0.000001 0.000000 -0.000000 -12.715406 -10.533826 7.955527 28.555134 0.237023 0.011099 14.972857 -0.488414 -7.557130 0.000001 0.000000 -0.000000 0.000001 0.000000 -0.000000 0.000001 -0.000000 0.000000 7.485106 -0.349376 -0.421911 -2.114713 -0.634067 1.955410 -2.107416 -0.526123 1.991270 -6.842585 -2.682122 0.508913 2.526786 0.702883 0.466853 0.000000 0.000000 -0.000000 0.000000 0.000000 -0.000000 0.000000 0.000000 -0.000000 1.091371 1.577362 -3.543028 -1.207959 1.492921 -78.012734 20.698683 -13.799239 -0.079281 -0.026788 -3.262833 -0.409667 10.557731 -2.873393 25.085798 -5.464167 26.111911 -7.055782 -0.000000 -0.000001 -0.000001 2.372200 3.636008 -10.145422 -2.155743 2.456263 -20.339690 -0.000001 -0.000000 -0.000002 -1.984301 5.666053 -18.668000 0.262865 5.090475 -32.022447 0.000000 0.000000 0.000000 -4.974557 10.107085 -16.316140 4.008923 4.056168 -38.803725 0.000001 -0.000000 -0.000002 -6.472577 11.328366 -26.083982 10.736414 2.575074 -37.642518 -0.000001 -0.000001 -0.000000 -0.000000 -0.000000 0.000001 0.487469 5.285023 4.298002 -7.282515 4.832123 74.584819 13.988542 13.383124 -4.466979 0.106880 3.530098 -2.699032 15.566059 -0.729112 -16.762766 -6.579395 -24.370074 7.035600 -0.000000 0.000001 -0.000003 2.252286 -2.297210 4.747753 -2.162981 -2.444729 14.947866 -0.000004 0.000004 -0.000001 -1.987012 -5.675763 8.743265 0.263317 -5.087431 22.099642 -0.000003 0.000002 -0.000002 -4.977250 -10.114504 7.762292 4.005850 -4.045820 30.251048 0.000001 0.000000 0.000000 -6.472723 -11.324494 16.980571 10.704479 -2.553590 28.536098 0.000005 0.000000 0.000000 -0.000000 0.000001 -0.000000 -0.000000 -0.000000 0.000000 -0.000000 -0.000000 0.000000 -0.000000 -0.000000 0.000000 -0.000000 -0.000000 0.000000 -0.000000 -0.000000 0.000000 -0.000000 0.000000 0.000000 -0.000000 -0.000000 0.000000 -0.000000 -0.000000 0.000000 -0.000000 0.000000 0.000000 0.000000 -0.000000 -0.000000 0.000000 -0.000000 -0.000000 -0.000000 0.000001 0.000000 
0.319514 84.155220 1.219904 -4.529550 2.614909 -1.464086 -0.000000 0.000000 -0.000000 -26.514740 -7.725803 -2.382948 42.387867 -2.261598 -0.178890 19.078465 3.436537 10.622238 0.000000 -0.000000 -0.000000 0.000000 -0.000000 -0.000000 0.000000 0.000000 0.000000 -9.216634 -10.740284 5.263064 26.740360 2.140445 0.156575 14.589533 -0.575558 -7.504754 0.000002 -0.000000 0.000000 0.000002 -0.000000 0.000000 0.000001 -0.000000 0.000001 9.490252 -0.066332 -1.250514 -2.556609 -0.064335 1.118679 -2.539776 -0.102290 1.061914 -6.176223 -2.020407 0.048721 2.171890 1.064566 0.758276 -0.000000 -0.000000 -0.000000 -0.000000 -0.000000 -0.000000 -0.000000 -0.000000 -0.000000 1.071749 2.372980 -3.650309 -0.277509 2.493644 -77.259835 23.308176 -12.691569 0.826766 -0.325722 -4.985880 -2.197816 10.563023 -2.821899 25.088806 -5.319668 26.332051 -7.060750 0.000001 -0.000000 -0.000001 2.370267 3.626299 -10.383655 -2.155454 2.459997 -20.524679 -0.000004 0.000001 -0.000002 -1.982854 5.669389 -18.873920 0.265112 5.091495 -32.287735 0.000002 -0.000001 -0.000003 -4.974568 10.107104 -16.316130 4.008871 4.057883 -39.066746 -0.000000 0.000000 -0.000004 -6.470679 11.330406 -26.295690 10.736413 2.575078 -37.642556 0.000002 0.000003 0.000005 0.000002 0.000000 -0.000001 0.572513 6.679620 3.789573 -8.823519 4.342983 75.298239 10.651356 14.522746 -3.900228 0.430991 7.294051 -3.865186 15.531463 -0.704353 -16.824744 -6.850429 -23.949345 7.036773 -0.000001 -0.000003 0.000001 2.239506 -2.178915 4.785934 -2.162468 -2.442919 14.636546 -0.000001 0.000001 0.000002 -2.015316 -5.556469 8.628674 0.260276 -5.086603 21.995887 0.000002 -0.000000 0.000001 -4.975054 -10.112171 7.434796 4.005735 -4.046893 30.294420 -0.000001 0.000002 0.000001 -6.472410 -11.321733 16.435817 10.712118 -2.572119 28.703747 -0.000002 0.000001 0.000002 -0.000001 -0.000002 0.000002 -0.000000 0.000000 -0.000000 -0.000000 0.000000 -0.000000 -0.000000 0.000000 -0.000000 -0.000000 0.000000 -0.000000 -0.000000 0.000000 -0.000000 -0.000000 0.000000 -0.000000 -0.000000 0.000000 -0.000000 -0.000000 0.000000 -0.000000 -0.000000 0.000000 -0.000000 0.000000 0.000000 0.000000 0.000000 0.000000 0.000000 -0.000000 0.000000 -0.000000 
0.753636 84.628258 3.398923 -4.206966 1.307148 -0.068403 -0.000000 -0.000000 0.000000 -25.336180 -2.623255 -2.679864 29.805767 -6.243822 -0.500350 23.536429 3.368358 8.641903 0.000002 -0.000001 -0.000001 0.000002 -0.000001 -0.000000 0.000000 0.000000 -0.000000 -7.779749 -12.561380 2.861130 26.201091 4.208527 0.312703 15.727866 -0.616668 -7.593161 -0.000001 -0.000000 -0.000000 -0.000001 -0.000000 -0.000000 0.000001 -0.000001 0.000000 8.793404 0.323484 -1.457137 -2.360319 0.446858 0.441742 -2.325696 0.338083 0.344248 -5.723530 -1.093578 -1.058324 1.990831 1.307273 1.491702 -0.000000 -0.000000 -0.000000 -0.000000 -0.000000 -0.000000 -0.000000 -0.000000 -0.000000 1.083408 3.307348 -4.009200 0.584568 3.185176 -76.489280 24.314613 -11.956927 1.137090 -0.390354 -5.861608 -2.421996 10.574461 -2.686346 25.102216 -4.933957 26.917263 -7.077216 0.000000 0.000000 0.000002 2.365233 3.600599 -11.017169 -2.155146 2.459393 -21.017032 -0.000000 0.000001 0.000000 -1.978909 5.668573 -19.421776 0.265538 5.094300 -32.992645 -0.000000 0.000000 -0.000003 -4.974557 10.107116 -16.316169 4.008816 4.057948 -39.765846 0.000000 0.000001 -0.000004 -6.469519 11.335556 -26.857907 10.736391 2.575070 -37.642556 -0.000001 -0.000000 0.000007 -0.000001 0.000000 -0.000000 0.728023 8.406047 2.887668 -9.953879 3.566499 75.876729 8.407636 16.123601 -3.392332 0.992111 10.169878 -6.560242 15.439586 -0.638328 -16.989442 -7.566878 -22.830899 7.050435 -0.000002 -0.000002 0.000000 2.205600 -1.864356 4.887422 -2.160783 -2.442332 13.808778 -0.000000 -0.000003 0.000003 -2.088096 -5.238658 8.324393 0.256625 -5.084108 21.720555 -0.000001 0.000000 0.000003 -4.968975 -10.110115 6.563642 4.005301 -4.049679 30.409747 0.000001 -0.000002 0.000002 -6.471693 -11.318758 14.986796 10.737606 -2.620845 29.149724 -0.000002 0.000000 0.000000 0.000001 -0.000002 0.000002 -0.000000 0.000000 -0.000000 -0.000000 0.000000 -0.000000 -0.000000 0.000000 -0.000000 -0.000000 0.000000 -0.000000 -0.000000 0.000000 -0.000000 -0.000000 0.000000 -0.000000 -0.000000 0.000000 -0.000000 -0.000000 0.000000 -0.000000 -0.000000 0.000000 -0.000000 0.000000 0.000000 0.000000 0.000000 0.000000 0.000000 -0.000000 -0.000000 0.000000 
1.076169 84.806152 5.685469 -2.220767 -0.090946 -0.226859 0.000000 -0.000000 0.000000 -24.194087 6.348678 -1.731898 15.360349 -9.034691 -0.722925 29.254253 2.394132 7.554757 -0.000000 -0.000000 0.000000 -0.000000 -0.000000 0.000001 0.000000 -0.000000 -0.000001 -6.804895 -13.846936 2.464942 24.164663 7.026113 0.496553 15.039612 -0.488735 -7.642009 -0.000002 -0.000000 0.000000 -0.000002 -0.000000 0.000000 0.000000 -0.000000 0.000000 5.551597 0.925558 0.022818 -1.551792 0.662222 -0.102266 -1.470527 0.635356 -0.145382 -6.217995 -0.021115 -1.813044 2.578956 1.970859 1.543286 0.000000 -0.000000 0.000000 0.000000 -0.000000 0.000000 0.000000 -0.000000 0.000000 1.188626 6.002208 -5.394632 1.615894 3.220572 -75.222431 24.750019 -12.717818 1.361951 -0.289234 -4.622413 -2.489938 10.590688 -2.492223 25.121405 -4.377657 27.755211 -7.108729 -0.000000 -0.000000 0.000001 2.358251 3.563974 -11.924547 -2.154635 2.458517 -21.722138 0.000001 0.000000 -0.000004 -1.978146 5.667313 -20.205967 0.266126 5.097864 -34.002318 -0.000000 -0.000001 0.000002 -4.974592 10.107103 -16.316157 4.009111 4.058046 -40.767080 -0.000000 0.000000 -0.000002 -6.467353 11.332741 -27.664617 10.736403 2.575077 -37.642515 -0.000001 -0.000001 0.000001 0.000002 0.000001 -0.000000 0.847617 10.348406 2.413172 -11.206599 2.863764 75.566481 8.916132 17.964472 -3.423295 1.817954 11.357274 -11.755332 15.306457 -0.543838 -17.224339 -8.583732 -21.229483 7.095948 0.000002 -0.000001 -0.000002 2.157068 -1.413814 5.033143 -2.157977 -2.441444 12.623217 -0.000003 0.000001 0.000004 -2.186516 -4.782216 7.890155 0.256475 -5.080214 21.326468 0.000004 -0.000000 0.000003 -4.964111 -10.107080 5.315260 4.004699 -4.051177 30.574809 0.000000 0.000001 -0.000001 -6.470468 -11.314561 12.911493 10.775405 -2.690044 29.788583 0.000000 0.000000 -0.000001 0.000001 -0.000003 0.000002 0.000000 -0.000000 0.000000 0.000000 -0.000000 0.000000 0.000000 -0.000000 0.000000 0.000000 -0.000000 0.000000 0.000000 -0.000000 0.000000 0.000000 -0.000000 0.000000 0.000000 -0.000000 0.000000 0.000000 -0.000000 0.000000 0.000000 -0.000000 0.000000 -0.000000 -0.000000 0.000000 -0.000000 -0.000000 0.000000 0.000000 -0.000000 0.000000 
